<svg height="503pt" viewBox="0 -36 503.99857 503" width="503pt" xmlns="http://www.w3.org/2000/svg"><path d="m486.507812 269.324219c-16.867187-15.773438-43.503906-14.53125-59.835937 1.800781l-44.910156 44.914062c-16.550781 16.546876-39 25.847657-62.40625 25.847657h-39.570313c23.949219 0 43.273438-19.816407 42.46875-43.949219-.773437-23.082031-20.488281-41.039062-43.582031-41.039062h-274.671875v132.8125h40.234375c10.261719 0 18.582031 8.316406 18.582031 18.582031 0 10.261719 8.316406 18.578125 18.578125 18.578125h273.164063c23.40625 0 45.851562-9.296875 62.402344-25.847656l70.59375-70.59375c16.933593-16.933594 16.585937-44.609376-1.046876-61.105469zm0 0" fill="#f4efed"/><path d="m486.507812 269.324219c-3.574218-3.34375-7.605468-5.875-11.867187-7.707031 6.730469 15.53125 3.75 34.257812-8.945313 46.953124l-70.59375 70.59375c-16.550781 16.550782-38.996093 25.847657-62.402343 25.847657h-270.1875c.1875 1.066406.304687 2.15625.304687 3.28125 0 10.261719 8.316406 18.578125 18.578125 18.578125h273.164063c23.40625 0 45.851562-9.296875 62.402344-25.847656l70.59375-70.59375c16.933593-16.933594 16.585937-44.609376-1.046876-61.105469zm0 0" fill="#d6d1cf"/><path d="m279.785156 345.886719h-111.066406c-2.207031 0-4-1.792969-4-4 0-2.210938 1.792969-4 4-4h111.0625c21.226562 0 38.496094-17.265625 38.496094-38.492188 0-21.226562-17.269532-38.496093-38.496094-38.496093h-146.363281c-2.210938 0-4-1.792969-4-4 0-2.210938 1.789062-4 4-4h146.367187c25.636719 0 46.492188 20.855468 46.492188 46.496093 0 25.632813-20.855469 46.492188-46.492188 46.492188zm0 0" fill="#690589"/><path d="m354.558594 430.875h-273.164063c-12.449219 0-22.578125-10.128906-22.578125-22.582031 0-8.039063-6.542968-14.582031-14.582031-14.582031h-40.234375c-2.210938 0-4-1.789063-4-4v-132.8125c0-2.210938 1.789062-4 4-4h274.671875c25.40625 0 46.753906 20.144531 47.578125 44.90625.425781 12.730468-4.207031 24.769531-13.042969 33.90625-2.253906 2.332031-4.703125 4.394531-7.316406 6.175781h13.464844c22.503906 0 43.660156-8.765625 59.574219-24.675781l44.914062-44.914063c17.960938-17.964844 47.296875-18.8125 65.394531-1.894531 9.300781 8.699218 14.539063 20.492187 14.753907 33.199218.210937 12.714844-4.625 24.667969-13.613282 33.65625l-70.589844 70.59375c-17.421874 17.425782-40.585937 27.023438-65.230468 27.023438zm-346.558594-45.164062h36.234375c12.453125 0 22.582031 10.128906 22.582031 22.582031 0 8.039062 6.542969 14.582031 14.578125 14.582031h273.164063c22.503906 0 43.660156-8.765625 59.574218-24.675781l70.59375-70.59375c7.441407-7.441407 11.445313-17.339844 11.265626-27.867188-.175782-10.519531-4.515626-20.285156-12.214844-27.492187-14.976563-14.003906-39.328125-13.242188-54.277344 1.707031l-44.910156 44.914063c-17.425782 17.421874-40.59375 27.019531-65.234375 27.019531h-39.570313c-2.210937 0-4-1.792969-4-4 0-2.210938 1.789063-4 4-4 10.523438 0 20.351563-4.167969 27.671875-11.738281 7.316407-7.5625 11.152344-17.535157 10.800781-28.078126-.6875-20.496093-18.445312-37.171874-39.585937-37.171874h-270.671875zm0 0" fill="#690589"/><path d="m361.734375 114.234375c0 60.601563-49.128906 109.734375-109.734375 109.734375s-109.734375-49.132812-109.734375-109.734375c0-60.605469 49.128906-109.734375 109.734375-109.734375s109.734375 49.128906 109.734375 109.734375zm0 0" fill="#fcc24c"/><path d="m252 4.496094c-3.703125 0-7.363281.191406-10.972656.550781 55.449218 5.503906 98.761718 52.285156 98.761718 109.183594 0 56.902343-43.3125 103.679687-98.761718 109.1875 3.609375.355469 7.269531.546875 10.972656.546875 60.605469 0 109.734375-49.128906 109.734375-109.734375 0-60.601563-49.128906-109.734375-109.734375-109.734375zm0 0" fill="#dea42e"/><path d="m252 4.496094c3.703125 0 7.363281.191406 10.972656.550781-55.449218 5.503906-98.757812 52.285156-98.757812 109.183594 0 56.902343 43.308594 103.679687 98.757812 109.1875-3.609375.355469-7.269531.546875-10.972656.546875-60.605469 0-109.734375-49.128906-109.734375-109.734375 0-60.601563 49.128906-109.734375 109.734375-109.734375zm0 0" fill="#fce06a"/><g fill="#690589"><path d="m252 227.96875c-62.710938 0-113.734375-51.023438-113.734375-113.734375 0-62.714844 51.023437-113.734375 113.734375-113.734375s113.734375 51.019531 113.734375 113.734375c0 62.710937-51.023437 113.734375-113.734375 113.734375zm0-219.472656c-58.300781 0-105.734375 47.433594-105.734375 105.734375 0 58.304687 47.433594 105.734375 105.734375 105.734375s105.734375-47.429688 105.734375-105.734375c0-58.300781-47.433594-105.734375-105.734375-105.734375zm0 0"/><path d="m175.378906 67.035156c-.765625 0-1.539062-.21875-2.226562-.679687-1.832032-1.226563-2.324219-3.710938-1.09375-5.546875 5.117187-7.628906 11.289062-14.488282 18.339844-20.382813 1.691406-1.417969 4.214843-1.191406 5.632812.503907 1.417969 1.695312 1.191406 4.21875-.503906 5.632812-6.472656 5.410156-12.132813 11.703125-16.824219 18.699219-.769531 1.152343-2.039063 1.773437-3.324219 1.773437zm0 0"/><path d="m253.328125 56.765625c3.183594 0 5.707031 2.523437 5.707031 5.707031v2.921875c7.832032.925781 14.464844 3.449219 20.570313 7.296875 2.121093 1.195313 3.980469 3.1875 3.980469 6.371094 0 4.113281-3.316407 7.296875-7.433594 7.296875-1.324219 0-2.652344-.398437-3.976563-1.195313-4.648437-2.785156-9.160156-4.777343-13.671875-5.839843v25.484375c20.171875 5.042968 28.796875 13.136718 28.796875 27.335937 0 14.597657-11.414062 24.289063-28.269531 25.878907v7.964843c0 3.183594-2.519531 5.707031-5.707031 5.707031-3.183594 0-5.839844-2.523437-5.839844-5.707031v-8.226562c-9.953125-1.058594-19.109375-4.644531-27.203125-10.351563-2.257812-1.460937-3.585938-3.582031-3.585938-6.371094 0-4.113281 3.183594-7.296874 7.300782-7.296874 1.59375 0 3.183594.527343 4.378906 1.460937 6.238281 4.511719 12.339844 7.5625 19.640625 8.890625v-26.144531c-19.378906-5.042969-28.398437-12.34375-28.398437-27.339844 0-14.199219 11.277343-24.019531 27.867187-25.347656v-2.789063c.003906-3.183594 2.65625-5.707031 5.84375-5.707031zm-5.308594 45.257813v-23.488282c-8.496093.792969-12.742187 5.304688-12.742187 11.144532 0 5.574218 2.523437 9.027343 12.742187 12.34375zm10.484375 18.445312v24.15625c8.492188-.933594 13.136719-5.175781 13.136719-11.546875 0-5.839844-2.917969-9.421875-13.136719-12.609375zm0 0"/></g><path d="m365.875 223.96875-56.28125-54.511719 24.429688-25.222656 31.242187 30.257813 54.292969-55.226563 25.042968 24.617187zm0 0" fill="#7bac51"/><path d="m365.875 227.96875c-1.003906 0-2.007812-.375-2.785156-1.128906l-56.28125-54.507813c-1.585938-1.539062-1.628906-4.070312-.089844-5.65625l24.425781-25.222656c.738281-.765625 1.75-1.203125 2.808594-1.21875 1.074219-.042969 2.085937.390625 2.847656 1.125l28.394531 27.5 51.507813-52.398437c1.542969-1.574219 4.078125-1.597657 5.65625-.046876l25.042969 24.617188c.753906.742188 1.1875 1.757812 1.195312 2.816406.011719 1.0625-.402344 2.082032-1.148437 2.839844l-78.726563 80.082031c-.777344.796875-1.8125 1.199219-2.847656 1.199219zm-50.625-58.601562 50.554688 48.960937 73.140624-74.398437-19.339843-19.011719-51.488281 52.378906c-1.542969 1.570313-4.054688 1.59375-5.636719.070313l-28.371094-27.480469zm0 0" fill="#690589"/></svg>